:SAMPLES-PER-SECOND 30
:FRAME-RANGE 1-2091
:FULLY-SPECIFIED
:DEGREES
327
root  37.3667 37.335 107.297 -179.281 27.1838 -179.131
RightUpLeg  -16.0026 -9.96481 -3.57161
RightLeg  67.4495 0.117291 -0.376917
RightFoot  -4.86092 -0.495196 8.14764
RightToes  5.38607e-012 1.2921e-014 -6.02303e-014
Spine  -3.99965 0.257299 -5.22862
Spine1  6.67033 1.36027 -6.58803
HEad  4.62568 35.795 -6.0479
LeftShoulder1  0.690297 0.655654 -19.8151
LeftArm  -1.9512 2.48934 -49.737
LeftForeArm  31.5244 1.06931 -12.6454
LeftHand  -0.0505918 4.57846 4.24826
RightShoulder  1.62175 1.50085 27.7585
RightArm  -32.826 -2.90395 45.9155
RightForeArm  69.9922 -4.55867 -0.894606
RightHand  0.29002 -7.7036 -15.5318
LeftUpLeg  -18.4508 3.08027 -7.44365
LeftLeg  30.9494 16.5859 10.8264
LeftFoot  -12.6146 0.104676 2.59904
LeftToes  -7.20997e-011 3.75522e-011 -2.80735e-011
328
root  37.8094 37.5635 106.676 -178.865 23.8991 -178.502
RightUpLeg  -18.4321 -9.86909 -2.95583
RightLeg  63.8271 -1.01174 -2.82285
RightFoot  -6.4743 -0.237227 4.54246
RightToes  5.38607e-012 1.2921e-014 -6.02303e-014
Spine  -3.63042 -0.282484 -5.69767
Spine1  6.29392 0.676799 -5.85097
HEad  3.76726 36.8281 -6.38407
LeftShoulder1  0.719978 0.527426 -19.6717
LeftArm  -0.62776 0.545685 -51.1571
LeftForeArm  31.5079 -0.58244 -12.8506
LeftHand  -0.0596993 4.25316 4.11164
RightShoulder  1.55713 1.3249 27.6333
RightArm  -32.6196 -3.67834 44.5779
RightForeArm  68.7773 -4.63391 -0.729403
RightHand  0.273323 -7.61693 -15.2796
LeftUpLeg  -16.5305 1.13925 -6.62528
LeftLeg  29.3139 15.5702 9.62038
LeftFoot  -12.8846 0.111809 2.55382
LeftToes  -7.20997e-011 3.75522e-011 -2.80735e-011
329
root  38.2539 37.7275 106.092 -178.445 20.1509 -177.848
RightUpLeg  -20.1955 -8.80484 -2.56523
RightLeg  58.4938 -2.36469 -4.61962
RightFoot  -8.67968 -0.144432 3.67745
RightToes  5.38607e-012 1.2921e-014 -6.02303e-014
Spine  -2.98396 -0.774146 -5.94211
Spine1  5.54361 0.0823829 -5.34133
HEad  3.15593 37.3249 -6.22701
LeftShoulder1  0.796527 0.1889 -19.2873
LeftArm  1.65527 -1.63042 -52.7435
LeftForeArm  31.9419 -1.84356 -13.1489
LeftHand  -0.0594866 4.26169 4.00628
RightShoulder  1.44414 0.972156 27.7535
RightArm  -32.226 -4.88823 43.3449
RightForeArm  67.3763 -4.74238 -0.406938
RightHand  0.222199 -7.22539 -15.2581
LeftUpLeg  -14.8586 -1.17915 -5.7568
LeftLeg  27.8121 14.7813 8.66436
LeftFoot  -13.3307 0.126625 2.68023
LeftToes  -7.20997e-011 3.75522e-011 -2.80735e-011
330
root  38.6917 37.9414 105.538 -177.852 16.0585 -177.407
RightUpLeg  -21.397 -6.43724 -2.94281
RightLeg  51.0797 -4.18739 -5.89543
RightFoot  -9.36439 -0.142379 4.56187
RightToes  5.38607e-012 1.2921e-014 -6.02303e-014
Spine  -2.50627 -1.15909 -6.18566
Spine1  4.56722 -0.328365 -4.91664
HEad  2.52692 37.7061 -5.81703
LeftShoulder1  1 -0.653977 -18.9667
LeftArm  3.78077 -3.89506 -54.4257
LeftForeArm  33.1824 -2.30112 -13.4311
LeftHand  -0.055298 4.36511 3.98737
RightShoulder  1.35919 0.680766 28.0875
RightArm  -31.2543 -6.35408 41.9195
RightForeArm  65.3965 -4.93009 0.261003
RightHand  0.184862 -6.96786 -14.9903
LeftUpLeg  -13.587 -3.02946 -4.84577
LeftLeg  26.2207 12.5963 7.05652
LeftFoot  -13.2688 0.125114 2.69841
LeftToes  -7.20997e-011 3.75522e-011 -2.80735e-011
331
root  39.1133 38.124 104.98 -177.226 11.4295 -177.078
RightUpLeg  -21.7541 -3.37411 -4.16423
RightLeg  42.6479 -5.79649 -5.97225
RightFoot  -9.41822 -0.122275 3.47386
RightToes  5.38607e-012 1.2921e-014 -6.02303e-014
Spine  -2.66716 -1.84299 -6.39464
Spine1  4.72114 -1.07708 -3.9454
HEad  1.0696 38.2803 -6.46594
LeftShoulder1  0.976749 -0.514075 -19.3065
LeftArm  7.4883 -6.8525 -55.7569
LeftForeArm  33.32 -2.93893 -13.8766
LeftHand  -0.0513904 4.51662 4.07154
RightShoulder  1.53016 1.33623 26.9436
RightArm  -31.1791 -8.2313 42.0199
RightForeArm  63.6639 -5.02819 0.469119
RightHand  0.125253 -6.54217 -14.4916
LeftUpLeg  -12.4096 -4.6956 -4.07527
LeftLeg  24.2222 10.2207 5.60741
LeftFoot  -13.2778 0.133267 3.16386
LeftToes  -7.20997e-011 3.75522e-011 -2.80735e-011
332
root  39.504 38.2882 104.428 -176.694 6.60242 -176.792
RightUpLeg  -21.195 0.648108 -6.38647
RightLeg  33.3962 -5.2504 -3.95437
RightFoot  -9.40028 -0.105087 2.43728
RightToes  5.38607e-012 1.2921e-014 -6.02303e-014
Spine  -2.40405 -2.2929 -6.00066
Spine1  4.33592 -1.50719 -3.64094
HEad  -0.0587875 38.8327 -6.58373
LeftShoulder1  1.08462 -1.0306 -18.7076
LeftArm  9.86687 -8.81746 -57.7498
LeftForeArm  33.9012 -3.29712 -14.0994
LeftHand  -0.0438462 4.78554 4.20749
RightShoulder  1.45909 1.10435 27.0597
RightArm  -31.1115 -9.70924 41.3244
RightForeArm  62.8563 -5.07294 0.563657
RightHand  0.0751434 -6.1684 -13.9361
LeftUpLeg  -11.4148 -5.95841 -3.21661
LeftLeg  22.5217 7.04334 4.09928
LeftFoot  -13.2569 0.138658 3.52715
LeftToes  -7.20997e-011 3.75522e-011 -2.80735e-011
